<svg xmlns="http://www.w3.org/2000/svg" xmlns:xlink="http://www.w3.org/1999/xlink" width="500" zoomAndPan="magnify" viewBox="0 0 375 374.999991" height="500" preserveAspectRatio="xMidYMid meet" version="1.0"><defs><clipPath id="073f4fd596"><path d="M 0 2 L 375 2 L 375 280 L 0 280 Z M 0 2 " clip-rule="nonzero"/></clipPath><clipPath id="30b90458e0"><path d="M 45.976562 3.574219 L 73.746094 49.035156 L 74.15625 49.445312 C 112.210938 73.308594 148.828125 96.964844 186.367188 121.648438 L 187.5 120.3125 L 127.84375 56.027344 L 127.742188 55.925781 L 78.886719 17.664062 L 78.683594 17.5625 L 47.210938 2.238281 Z M 14.914062 193.441406 L 27.769531 194.367188 L 12.652344 174.71875 L 10.902344 175.441406 L 12.445312 188.398438 C 12.445312 188.707031 12.34375 189.121094 11.929688 189.222656 L 0 194.878906 L 0.515625 196.523438 L 14.503906 193.542969 C 14.605469 193.542969 14.707031 193.542969 14.8125 193.542969 Z M 31.472656 208.148438 L 13.679688 212.980469 L 12.960938 213.496094 L 6.582031 223.0625 L 7.714844 224.605469 L 21.289062 220.59375 L 21.804688 220.285156 L 32.5 209.792969 L 31.574219 208.25 Z M 59.65625 195.394531 L 35.175781 191.175781 L 34.351562 192.824219 L 44.226562 201.257812 C 44.535156 201.460938 44.636719 201.875 44.535156 202.285156 L 39.597656 214.523438 L 41.140625 215.347656 L 49.472656 203.621094 C 49.472656 203.519531 49.574219 203.519531 49.679688 203.417969 L 59.757812 195.394531 Z M 82.179688 179.246094 L 26.742188 173.074219 L 26.332031 174.71875 L 62.535156 186.960938 L 63.253906 186.960938 L 82.28125 180.996094 L 82.078125 179.246094 Z M 90.304688 175.027344 L 107.582031 177.1875 C 113.242188 171.222656 117.457031 167.109375 123.527344 161.554688 L 122.703125 159.910156 L 103.777344 162.6875 L 103.367188 162.789062 L 93.699219 168.035156 L 93.183594 168.550781 L 90.304688 174.925781 Z M 62.738281 210.71875 L 85.265625 204.035156 L 85.777344 203.726562 L 103.46875 186.34375 L 102.542969 184.800781 L 73.023438 192.824219 L 72.304688 193.335938 L 61.609375 209.277344 L 62.738281 210.820312 Z M 30.546875 234.683594 L 40.007812 235.917969 C 42.785156 232.933594 44.945312 230.878906 47.929688 228.101562 L 47.105469 226.457031 L 37.851562 227.792969 L 37.4375 227.894531 L 32.605469 230.464844 L 32.089844 230.980469 L 30.445312 234.582031 Z M 49.78125 246.101562 L 20.671875 242.808594 L 20.261719 244.453125 L 39.289062 250.933594 L 40.007812 250.933594 L 49.882812 247.847656 L 49.679688 246.101562 Z M 50.601562 236.328125 L 71.277344 230.464844 L 71.894531 230.054688 L 78.683594 221.414062 L 77.550781 220.078125 L 49.984375 234.785156 Z M 95.242188 246.101562 L 92.566406 247.539062 C 92.464844 247.539062 92.363281 247.644531 92.257812 247.644531 L 70.042969 249.90625 L 69.324219 250.316406 L 44.226562 277.46875 L 45.253906 279.011719 L 87.527344 262.863281 L 87.9375 262.660156 L 117.457031 236.636719 L 116.429688 235.199219 L 96.269531 245.6875 C 96.0625 245.792969 95.859375 245.792969 95.652344 245.792969 C 95.550781 245.996094 95.445312 246.203125 95.242188 246.304688 Z M 95.445312 244.042969 L 129.386719 222.546875 L 128.667969 220.902344 L 101.722656 228.101562 L 101.515625 228.101562 L 83 229.128906 L 70.453125 246.203125 L 94.316406 244.558594 L 94.519531 244.453125 C 94.726562 244.351562 94.933594 244.351562 95.136719 244.453125 C 95.242188 244.25 95.34375 244.144531 95.445312 244.042969 Z M 188.21875 220.695312 L 134.121094 234.273438 L 134.324219 235.917969 L 172.484375 234.785156 L 173.203125 234.582031 L 188.941406 222.339844 L 188.117188 220.695312 Z M 184.105469 178.21875 L 155.203125 174.824219 L 155 174.824219 L 136.792969 168.445312 L 91.230469 211.335938 L 92.054688 212.980469 L 134.738281 203.003906 L 134.941406 202.902344 L 184.414062 180.070312 Z M 158.394531 166.902344 L 185.132812 171.121094 L 185.75 171.121094 L 200.664062 166.285156 L 200.5625 164.433594 L 145.226562 155.28125 L 144.507812 156.925781 L 157.980469 166.59375 L 158.496094 166.800781 Z M 195.316406 208.25 L 196.449219 181.304688 L 145.023438 205.886719 L 145.226562 207.734375 L 170.53125 213.804688 L 171.042969 213.804688 Z M 219.488281 192 L 226.171875 168.136719 L 224.628906 167.210938 L 222.984375 168.859375 C 222.882812 168.960938 222.777344 168.960938 222.777344 169.0625 C 222.777344 169.167969 222.675781 169.269531 222.574219 169.269531 L 203.132812 188.914062 L 202.824219 189.632812 L 201.488281 208.867188 L 203.238281 209.585938 L 219.382812 192.515625 L 219.691406 192 Z M 256.824219 158.367188 L 237.484375 173.179688 L 237.074219 173.691406 L 225.554688 201.359375 C 225.453125 201.460938 225.453125 201.566406 225.351562 201.667969 L 190.277344 230.261719 L 191.203125 231.804688 L 228.742188 216.273438 L 229.15625 215.964844 L 260.628906 181.714844 Z M 260.320312 134.09375 L 254.664062 110.128906 L 252.8125 110.027344 L 232.136719 166.285156 L 233.578125 167.417969 L 255.28125 152.195312 L 255.691406 151.578125 L 260.320312 134.609375 L 260.320312 133.992188 Z M 307.324219 105.707031 L 375.308594 80.714844 L 374.898438 79.066406 L 301.976562 93.160156 Z M 313.496094 110.128906 L 277.804688 133.785156 L 276.671875 171.019531 L 278.421875 171.429688 L 291.691406 138.722656 C 291.691406 138.621094 291.792969 138.515625 291.792969 138.515625 L 314.625 111.570312 L 313.496094 110.230469 Z M 275.027344 103.753906 L 270.808594 110.644531 C 270.707031 110.847656 270.605469 110.953125 270.398438 110.953125 L 266.285156 112.496094 C 265.976562 112.597656 265.566406 112.597656 265.359375 112.289062 C 265.050781 111.980469 265.050781 111.464844 265.359375 111.054688 C 265.769531 110.644531 266.183594 110.027344 266.492188 109.410156 C 266.695312 108.792969 266.902344 108.175781 266.902344 107.453125 C 266.902344 106.734375 266.800781 106.117188 266.492188 105.5 C 266.285156 104.882812 265.875 104.371094 265.359375 103.855469 C 264.949219 103.445312 264.332031 103.03125 263.714844 102.722656 C 263.097656 102.519531 262.480469 102.3125 261.757812 102.3125 C 261.039062 102.3125 260.421875 102.414062 259.804688 102.722656 C 259.1875 102.929688 258.675781 103.339844 258.160156 103.855469 C 257.75 104.265625 257.335938 104.882812 257.027344 105.5 C 256.824219 106.117188 256.617188 106.734375 256.617188 107.453125 C 256.617188 108.175781 256.71875 108.792969 257.027344 109.410156 C 257.234375 110.027344 257.644531 110.539062 258.160156 111.054688 C 258.570312 111.464844 259.085938 111.878906 259.597656 112.082031 C 260.113281 112.289062 260.730469 112.496094 261.347656 112.496094 C 261.65625 112.496094 261.964844 112.699219 262.066406 113.007812 C 262.273438 113.421875 261.964844 113.933594 261.554688 114.140625 L 260.730469 114.449219 L 265.976562 132.140625 C 274.617188 124.21875 282.742188 116.199219 291.175781 107.96875 L 294.261719 104.882812 L 293.539062 103.136719 L 274.925781 103.546875 Z M 241.085938 84.929688 L 268.136719 92.542969 L 268.652344 92.542969 L 295.289062 88.015625 L 295.390625 86.164062 L 262.582031 78.140625 L 262.066406 78.140625 L 241.292969 83.078125 L 241.292969 84.929688 Z M 213.417969 119.898438 L 252.296875 96.039062 L 233.371094 90.277344 L 220 102.003906 L 219.691406 102.414062 L 211.980469 118.5625 L 213.316406 119.796875 Z M 216.8125 130.183594 C 216.503906 130.390625 216.09375 130.390625 215.785156 130.183594 L 186.675781 108.070312 L 185.441406 109.304688 L 209.820312 138.621094 C 209.820312 138.722656 209.921875 138.722656 209.921875 138.824219 L 222.058594 166.800781 L 247.875 110.847656 L 246.433594 109.613281 L 216.710938 130.082031 Z M 122.292969 40.910156 C 149.648438 65.183594 175.980469 88.425781 206.011719 110.539062 L 207.351562 109.304688 L 196.035156 92.335938 L 195.726562 92.027344 L 102.234375 21.058594 L 101.207031 22.292969 C 108.199219 28.464844 115.296875 34.738281 122.292969 40.910156 Z M 205.292969 157.03125 L 120.132812 117.328125 L 118.898438 118.664062 L 136.382812 146.539062 L 204.777344 158.574219 L 205.292969 156.925781 Z M 121.261719 85.445312 L 86.292969 69.296875 L 85.160156 70.738281 L 111.285156 106.117188 L 111.800781 106.53125 L 204.058594 147.980469 L 204.882812 146.539062 L 121.46875 85.648438 L 121.261719 85.546875 Z M 121.261719 85.445312 " clip-rule="evenodd"/></clipPath></defs><g clip-path="url(#073f4fd596)"><g clip-path="url(#30b90458e0)"><path fill="#d9d9d9" d="M 0 2.238281 L 0 279.011719 L 375 279.011719 L 375 2.238281 Z M 0 2.238281 " fill-opacity="1" fill-rule="nonzero"/></g></g></svg>